<svg xmlns="http://www.w3.org/2000/svg" viewBox="0 0 48 48"><defs><style>.cls-3{fill:#fc6}.cls-4{fill:#6fabe6}.cls-5{fill:#425b72}.cls-6{fill:#ffde76}.cls-7{fill:#82bcf4}</style></defs><g id="Planning_workflow" data-name="Planning workflow"><path style="fill:#db5669" d="M20 1h8v6h-8z"/><path d="M28 1v4h-2a4 4 0 0 1-4-4h6z" style="fill:#f26674"/><path class="cls-3" d="M20 21h8v6h-8zM7 21h8v6H7z"/><path class="cls-4" d="M14 41h8v6h-8zM1 41h8v6H1z"/><path class="cls-4" transform="rotate(-180 30 44)" d="M26 41h8v6h-8z"/><path class="cls-4" transform="rotate(-180 43 44)" d="M39 41h8v6h-8z"/><path class="cls-5" d="M24 15H11a1 1 0 0 1 0-2h13a1 1 0 0 1 0 2z"/><path class="cls-5" d="M24 18a1 1 0 0 1-1-1v-6a1 1 0 0 1 2 0v6a1 1 0 0 1-1 1zM11 18a1 1 0 0 1-1-1v-3a1 1 0 0 1 2 0v3a1 1 0 0 1-1 1z"/><path class="cls-3" transform="rotate(-180 37 24)" d="M33 21h8v6h-8z"/><path class="cls-5" d="M37 15H24a1 1 0 0 1 0-2h13a1 1 0 0 1 0 2z"/><path class="cls-5" d="M37 18a1 1 0 0 1-1-1v-3a1 1 0 0 1 2 0v3a1 1 0 0 1-1 1zM18 38a1 1 0 0 1-1-1v-3a1 1 0 0 1 2 0v3a1 1 0 0 1-1 1zM11 35a1 1 0 0 1-1-1v-3a1 1 0 0 1 2 0v3a1 1 0 0 1-1 1zM24 35a1 1 0 0 1-1-1v-3a1 1 0 0 1 2 0v3a1 1 0 0 1-1 1z"/><path class="cls-5" d="M5 38a1 1 0 0 1-1-1v-3a1 1 0 0 1 1-1h38a1 1 0 0 1 0 2H6v2a1 1 0 0 1-1 1z"/><path class="cls-5" d="M30 38a1 1 0 0 1-1-1v-3a1 1 0 0 1 2 0v3a1 1 0 0 1-1 1zM37 35a1 1 0 0 1-1-1v-3a1 1 0 0 1 2 0v3a1 1 0 0 1-1 1zM43 38a1 1 0 0 1-1-1v-3a1 1 0 0 1 2 0v3a1 1 0 0 1-1 1z"/><path class="cls-6" d="M41 21v4h-2a4 4 0 0 1-4-4h6zM28 21v4h-2a4 4 0 0 1-4-4h6zM15 21v4h-2a4 4 0 0 1-4-4h6z"/><path class="cls-7" d="M47 41v4h-2a4 4 0 0 1-4-4h6zM34 41v4h-2a4 4 0 0 1-4-4h6zM22 41v4h-2a4 4 0 0 1-4-4h6zM9 41v4H7a4 4 0 0 1-4-4h6z"/></g></svg>